HIERARCHY
ROOT Hips
{
	OFFSET 0.000000 0.000000 0.000000
	CHANNELS 6 Xposition Yposition Zposition Zrotation Yrotation Xrotation 
	JOINT LeftUpLeg_virtual
	{
		OFFSET 0.000000 0.000000 0.000000
		CHANNELS 3 Zrotation Yrotation Xrotation
		JOINT LeftUpLeg
		{
			OFFSET 10.205400 -3.823500 0.155100
			CHANNELS 3 Zrotation Yrotation Xrotation
			JOINT LeftLeg
			{
				OFFSET 0.708757 -12.982077 0.567790
				CHANNELS 3 Zrotation Yrotation Xrotation
				JOINT LeftFoot
				{
					OFFSET -0.708756 -10.717838 -2.184338
					CHANNELS 3 Zrotation Yrotation Xrotation
					JOINT LeftToeBase
					{
						OFFSET 0.108149 -7.191104 7.560241
						CHANNELS 3 Zrotation Yrotation Xrotation
						End Site
						{
							OFFSET 0.000000 0.000000 0.000000
						}
					}
				}
			}
		}
	}
	JOINT RightUpLeg_virtual
	{
		OFFSET 0.000000 0.000000 0.000000
		CHANNELS 3 Zrotation Yrotation Xrotation
		JOINT RightUpLeg
		{
			OFFSET -10.205400 -3.823500 0.005500
			CHANNELS 3 Zrotation Yrotation Xrotation
			JOINT RightLeg
			{
				OFFSET -0.708756 -12.982134 0.610632
				CHANNELS 3 Zrotation Yrotation Xrotation
				JOINT RightFoot
				{
					OFFSET 0.708754 -10.717769 -1.945823
					CHANNELS 3 Zrotation Yrotation Xrotation
					JOINT RightToeBase
					{
						OFFSET -0.108140 -7.191069 7.372968
						CHANNELS 3 Zrotation Yrotation Xrotation
						End Site
						{
							OFFSET 0.000000 0.000000 0.000000
						}
					}
				}
			}
		}
	}
	JOINT Spine_virtual
	{
		OFFSET 0.000000 0.000000 0.000000
		CHANNELS 3 Zrotation Yrotation Xrotation
		JOINT Spine
		{
			OFFSET 0.000000 6.876099 0.125700
			CHANNELS 3 Zrotation Yrotation Xrotation
			JOINT Spine1
			{
				OFFSET 0.000000 8.022060 0.146608
				CHANNELS 3 Zrotation Yrotation Xrotation
				JOINT Spine2
				{
					OFFSET 0.000000 9.168068 0.167552
					CHANNELS 3 Zrotation Yrotation Xrotation
					JOINT Neck_virtual
					{
						OFFSET 0.000000 0.000000 0.000000
						CHANNELS 3 Zrotation Yrotation Xrotation
						JOINT Neck
						{
							OFFSET 0.000000 10.314075 0.188496
							CHANNELS 3 Zrotation Yrotation Xrotation
							JOINT Head
							{
								OFFSET 0.000000 7.643700 -2.377400
								CHANNELS 3 Zrotation Yrotation Xrotation
								End Site
								{
									OFFSET 0.000000 0.000000 0.000000
								}
							}
						}
					}
					JOINT LeftShoulder_virtual
					{
						OFFSET 0.000000 0.000000 0.000000
						CHANNELS 3 Zrotation Yrotation Xrotation
						JOINT LeftShoulder
						{
							OFFSET 4.392200 8.824978 0.174984
							CHANNELS 3 Zrotation Yrotation Xrotation
							JOINT LeftArm
							{
								OFFSET 8.771219 -2.981674 -0.026999
								CHANNELS 3 Zrotation Yrotation Xrotation
								JOINT LeftForeArm
								{
									OFFSET 8.512804 0.000000 -0.000000
									CHANNELS 3 Zrotation Yrotation Xrotation
									JOINT LeftHand
									{
										OFFSET 18.484802 0.000000 -0.000000
										CHANNELS 3 Zrotation Yrotation Xrotation
										End Site
										{
											OFFSET 0.000000 0.000000 0.000000
										}
									}
								}
							}
						}
					}
					JOINT RightShoulder_virtual
					{
						OFFSET 0.000000 0.000000 0.000000
						CHANNELS 3 Zrotation Yrotation Xrotation
						JOINT RightShoulder
						{
							OFFSET -4.392200 8.824993 0.141379
							CHANNELS 3 Zrotation Yrotation Xrotation
							JOINT RightArm
							{
								OFFSET -8.771282 -2.981682 -0.094208
								CHANNELS 3 Zrotation Yrotation Xrotation
								JOINT RightForeArm
								{
									OFFSET -8.494598 0.000000 0.000000
									CHANNELS 3 Zrotation Yrotation Xrotation
									JOINT RightHand
									{
										OFFSET -18.483803 0.000000 0.000001
										CHANNELS 3 Zrotation Yrotation Xrotation
										End Site
										{
											OFFSET 0.000000 0.000000 0.000000
										}
									}
								}
							}
						}
					}
				}
			}
		}
	}
}
MOTION
Frames: 14
Frame Time: 0.033333
10.913839 34.785675 -7.854337 179.476225 2.125085 -178.935766 -0.431174 -3.205091 10.789210 -13.714248 -2.438147 -29.449938 19.373222 3.400613 23.831170 -15.391809 7.836218 8.838137 0.000000 0.000000 0.000000 3.758906 -0.887982 9.795791 0.868329 17.331740 -29.351409 -8.435166 -8.055131 36.127551 10.966817 11.434617 6.220887 0.000000 0.000000 0.000000 2.797382 0.658001 -10.905002 -1.358268 0.720685 -11.879007 -0.761861 -2.220830 11.558155 -0.001158 0.066208 0.162192 -0.967008 -0.154907 12.181294 2.788397 -1.422513 16.942773 0.000000 0.000000 0.000000 0.598154 0.657929 9.026921 -20.149348 -11.788437 3.502271 -46.076166 19.793919 13.646416 -2.661100 -28.662151 2.669267 0.000000 0.000000 0.000000 -3.368076 1.817663 8.447786 24.865358 6.883602 7.080354 44.819725 -14.335689 13.717001 -6.272566 25.464328 -3.037762 0.000000 0.000000 0.000000 
10.945982 34.806324 -7.759516 179.285909 2.037278 -178.761050 -0.365428 -2.858648 11.317390 -13.455296 -2.307687 -29.143929 19.557149 3.520259 23.928653 -15.244439 8.071776 9.109952 0.000000 0.000000 0.000000 4.151788 -0.466342 10.472220 0.836425 17.624516 -30.229277 -8.325207 -8.475343 35.863766 11.229277 11.622685 6.753014 0.000000 0.000000 0.000000 2.605045 0.756661 -10.716374 -1.497364 0.612743 -11.795841 -0.841640 -2.215126 11.610933 0.129285 0.079604 0.238279 -0.947818 -0.214652 12.166657 2.788451 -1.374594 16.874759 0.000000 0.000000 0.000000 0.548393 0.613321 9.058163 -20.176322 -11.991976 3.507873 -46.118598 19.541393 13.672263 -2.569199 -28.751108 2.586285 0.000000 0.000000 0.000000 -3.348811 1.843730 8.500062 24.794849 6.890626 7.042451 44.711764 -14.423121 13.800626 -6.269941 25.427382 -3.074866 0.000000 0.000000 0.000000 
10.998755 34.819229 -7.662593 179.292274 1.614748 -178.870510 -0.386620 -2.721882 11.680787 -13.176398 -2.465408 -29.264523 19.315693 3.757902 23.884514 -15.476828 7.933069 8.787452 0.000000 0.000000 0.000000 4.287290 -0.204279 11.274251 0.467188 17.550127 -31.226744 -8.407626 -8.672857 35.941630 11.239959 11.553369 7.128946 0.000000 0.000000 0.000000 2.639492 0.595254 -10.162870 -1.454798 0.592109 -11.573125 -0.854398 -1.992901 11.496600 0.074175 -0.015372 0.140261 -0.998018 -0.190468 12.051206 2.816283 -1.236323 16.897412 0.000000 0.000000 0.000000 0.499319 0.608605 8.871410 -20.183185 -11.771235 3.635285 -46.297594 19.145196 13.484424 -2.475425 -28.532704 2.510213 0.000000 0.000000 0.000000 -3.422486 1.769360 8.333352 24.801395 6.889512 7.018396 44.736298 -14.669844 14.074881 -6.195922 25.524997 -3.068820 0.000000 0.000000 0.000000 
11.065778 34.829044 -7.599696 179.298777 0.736053 -178.996473 -0.427810 -2.532898 11.988190 -12.802654 -2.718820 -29.432446 18.942013 3.854190 23.839061 -15.796768 7.680771 8.369270 0.000000 0.000000 0.000000 4.433025 0.048008 11.748809 0.358238 17.008204 -31.617854 -8.449081 -9.011909 35.939933 11.317782 11.429705 7.730209 0.000000 0.000000 0.000000 2.595223 0.865140 -9.758693 -1.388636 0.378086 -11.422615 -0.918044 -2.103170 11.517185 0.067842 0.212539 0.150259 -1.062673 -0.172169 11.899241 2.721989 -1.088625 17.028855 0.000000 0.000000 0.000000 0.440863 0.576132 8.728086 -20.141673 -11.828421 3.583044 -46.320939 18.993885 13.797398 -2.302154 -28.214087 2.407050 0.000000 0.000000 0.000000 -3.473427 1.819137 8.204922 24.847221 6.894136 7.005173 44.843908 -14.957295 14.253606 -6.185064 25.536144 -3.112759 0.000000 0.000000 0.000000 
11.117263 34.846844 -7.559394 179.323516 -0.511090 -179.205490 -0.490192 -2.285556 12.130728 -12.394341 -2.941810 -29.683678 18.353808 3.383954 23.687072 -16.024993 7.319927 7.719639 0.000000 0.000000 0.000000 4.575435 0.401976 12.400285 0.379690 16.263478 -31.905391 -8.460372 -9.377316 35.844566 11.361014 11.239095 8.354753 0.000000 0.000000 0.000000 2.569120 1.232647 -9.192784 -1.310500 0.220014 -11.323417 -1.005323 -2.120347 11.411464 0.010441 0.179845 0.153318 -1.090913 -0.194623 11.685467 2.633858 -0.873684 17.190714 0.000000 0.000000 0.000000 0.404501 0.710741 8.514146 -20.036937 -11.657109 3.474636 -46.378726 18.957796 13.874283 -2.260650 -27.853610 2.415910 0.000000 0.000000 0.000000 -3.508239 1.938188 8.066249 24.887212 6.892342 6.981588 45.097881 -15.275351 14.211070 -6.195077 25.583554 -3.187115 0.000000 0.000000 0.000000 
11.143544 34.855480 -7.505067 179.311454 -2.295138 -179.374401 -0.575101 -2.008787 12.221655 -11.995311 -3.109331 -30.016998 17.627912 2.556344 23.528274 -16.278590 6.999936 6.971703 0.000000 0.000000 0.000000 4.632564 0.648643 13.110527 0.518155 15.445732 -32.171236 -8.439550 -9.754127 35.658502 11.326151 11.016082 8.836756 0.000000 0.000000 0.000000 2.343988 1.779106 -8.636503 -1.243201 0.102619 -11.333337 -0.990867 -2.157658 11.302851 0.082156 0.125786 0.139969 -1.147170 -0.157095 11.367449 2.314937 -0.715284 17.264179 0.000000 0.000000 0.000000 0.353463 0.594250 8.269088 -19.899553 -11.661662 3.669020 -46.285655 18.918555 14.533854 -2.123007 -27.685871 2.439503 0.000000 0.000000 0.000000 -3.680448 1.793493 7.821174 24.920584 6.715934 6.971642 45.644457 -15.711539 14.028473 -6.174594 25.421529 -3.262092 0.000000 0.000000 0.000000 
11.158586 34.863659 -7.417617 179.365426 -4.420403 -179.489858 -0.749882 -1.663524 12.313909 -11.591762 -3.354746 -30.486963 16.851689 1.761160 23.322460 -16.798403 6.696344 6.340509 0.000000 0.000000 0.000000 4.676588 0.867770 13.642200 0.782334 14.519964 -32.184067 -8.390997 -10.090225 35.395495 11.108771 10.787531 8.988936 0.000000 0.000000 0.000000 2.390092 1.743083 -8.029469 -1.287057 0.050683 -11.465882 -1.078964 -2.114570 11.129004 0.095942 0.181727 0.122693 -1.110254 -0.210657 11.151810 2.069099 -0.552415 17.456446 0.000000 0.000000 0.000000 0.352938 0.616151 7.991206 -19.737247 -11.429829 3.882208 -46.112424 18.762103 15.081094 -2.008181 -27.658323 2.542351 0.000000 0.000000 0.000000 -3.741017 1.807267 7.494168 24.943371 6.458970 7.050748 46.307887 -16.419792 13.590494 -6.252920 25.477082 -3.381197 0.000000 0.000000 0.000000 
11.163064 34.877075 -7.303807 179.372679 -7.028944 -179.504434 -1.020515 -1.343203 12.376941 -11.095015 -3.708145 -31.208975 16.141981 1.245604 22.996117 -17.562720 6.403522 6.541847 0.000000 0.000000 0.000000 4.690541 0.940134 13.982686 1.085913 13.352704 -32.131136 -8.319184 -10.361192 35.251330 10.648150 10.607128 8.688663 0.000000 0.000000 0.000000 2.313153 1.761315 -7.448011 -1.339494 0.087834 -11.701576 -1.054000 -2.003893 11.004892 0.039297 0.220747 0.031362 -1.091297 -0.222208 10.939186 1.604084 0.052719 17.608385 0.000000 0.000000 0.000000 0.414646 0.598083 7.802914 -19.509334 -11.367048 3.986031 -45.763927 18.576450 15.958013 -1.920345 -28.046589 2.661097 0.000000 0.000000 0.000000 -3.802988 1.769312 7.267060 25.042926 6.028161 7.035042 47.099711 -17.554006 13.150484 -6.240159 25.508737 -3.425892 0.000000 0.000000 0.000000 
11.166480 34.899410 -7.128174 179.317423 -10.317516 -179.595480 -1.360619 -1.244207 12.390760 -10.376503 -4.007755 -32.160468 15.209300 1.615024 22.584000 -18.423638 5.758359 7.601498 0.000000 0.000000 0.000000 4.691196 0.647769 14.182019 1.410060 11.888865 -31.875178 -8.184531 -10.575440 35.199233 9.897896 10.511472 8.115724 0.000000 0.000000 0.000000 2.255263 1.611955 -6.800380 -1.441627 0.190760 -11.814066 -1.104998 -1.939315 10.832547 0.045992 0.227340 0.054245 -1.081562 -0.213821 10.722562 0.992707 0.518613 17.929851 0.000000 0.000000 0.000000 0.393668 0.596913 7.632946 -19.286040 -11.281267 4.202053 -45.308289 18.168657 16.767406 -1.836749 -28.672400 2.821639 0.000000 0.000000 0.000000 -3.834393 1.831468 7.080620 25.183437 5.576161 7.083033 47.932031 -18.874753 12.424456 -6.296429 25.496592 -3.568755 0.000000 0.000000 0.000000 
11.162999 34.917957 -6.873331 179.261142 -14.585212 -179.679123 -1.695517 -1.427115 12.414309 -9.819580 -4.320124 -33.398385 13.378841 0.769902 21.576868 -18.504745 6.016235 9.862553 0.000000 0.000000 0.000000 4.730243 -0.160703 14.048529 1.686723 10.328371 -31.495676 -8.012333 -10.785556 35.620400 8.855577 10.626613 6.721025 0.000000 0.000000 0.000000 2.205194 1.417583 -6.098817 -1.500917 0.329435 -11.770824 -1.172199 -2.047461 10.673695 0.036151 0.134102 0.030352 -1.209150 -0.085242 10.453097 0.061428 0.953811 18.117034 0.000000 0.000000 0.000000 0.404701 0.716994 7.426611 -19.060075 -11.094321 4.437864 -44.926027 17.610796 17.345827 -1.858400 -29.424411 3.066932 0.000000 0.000000 0.000000 -3.969890 1.927845 6.909587 25.332606 5.203613 7.155106 48.835064 -20.283208 11.440402 -6.360451 25.456040 -3.703396 0.000000 0.000000 0.000000 
11.147755 34.903084 -6.505647 179.332655 -19.869719 -179.842883 -1.781525 -2.436645 12.303055 -9.607478 -5.336372 -34.849387 12.593102 1.477207 21.341394 -19.037568 6.176177 12.467628 0.000000 0.000000 0.000000 4.828000 -1.578802 13.910881 1.852718 8.588610 -31.305018 -7.763784 -10.966794 36.242736 7.623162 10.869802 5.033493 0.000000 0.000000 0.000000 2.366548 0.643489 -5.370576 -1.541611 0.753008 -11.514277 -1.363172 -1.986484 10.438190 0.082604 0.080150 0.013950 -1.357576 -0.003165 10.256327 -0.931359 1.502099 18.308624 0.000000 0.000000 0.000000 0.401957 0.742627 7.265250 -18.828446 -10.993616 4.666392 -44.714520 16.798744 17.452537 -1.952676 -30.119956 3.323024 0.000000 0.000000 0.000000 -4.197462 1.989333 6.734418 25.560806 4.823365 7.351520 49.646336 -21.608712 10.334584 -6.320870 25.301193 -3.750877 0.000000 0.000000 0.000000 
11.101720 34.875015 -6.040239 179.682183 -25.677992 179.955240 -1.811345 -4.137437 12.222953 -9.532319 -6.323145 -36.366277 12.192056 2.798899 21.614016 -19.297011 6.352198 14.239300 0.000000 0.000000 0.000000 5.053480 -3.349267 13.657190 1.890543 6.687762 -31.356193 -7.466010 -11.159557 36.904414 6.320307 11.122921 3.816127 0.000000 0.000000 0.000000 2.821992 -0.365404 -4.771423 -1.438655 1.371523 -11.317898 -1.599633 -1.927526 10.525603 -0.008305 0.224154 -0.027220 -1.602579 0.136851 10.056116 -2.017235 2.143287 18.428375 0.000000 0.000000 0.000000 0.167908 0.835723 7.097364 -18.663953 -10.899475 4.823841 -44.438669 15.853660 16.904578 -1.850193 -30.580799 3.506938 0.000000 0.000000 0.000000 -4.506933 2.030996 6.546550 25.805172 4.725147 7.449540 50.110144 -22.695240 9.593395 -6.245004 25.073240 -3.745740 0.000000 0.000000 0.000000 
11.037714 34.830631 -5.507819 -179.619591 -31.865421 179.541139 -1.767781 -5.989468 12.164584 -9.589099 -6.865330 -37.845286 11.762025 3.605758 21.805821 -19.728305 6.439969 15.524537 0.000000 0.000000 0.000000 5.411661 -5.098656 13.344076 1.780597 4.938295 -31.355199 -7.186832 -11.371168 37.456539 4.954273 11.227741 2.893719 0.000000 0.000000 0.000000 3.517191 -1.502949 -4.197029 -1.211108 2.331337 -11.009884 -1.812686 -1.715127 10.420791 -0.031259 0.041705 -0.094629 -2.105731 0.287971 10.050972 -3.352395 2.663729 18.511302 0.000000 0.000000 0.000000 -0.154597 1.058618 7.062885 -18.562557 -10.836958 5.070458 -44.047367 14.782814 16.092855 -1.999495 -30.994299 3.641629 0.000000 0.000000 0.000000 -4.883778 2.371145 6.427980 26.089035 4.821052 7.859855 50.278850 -23.234651 9.123018 -6.249206 24.565383 -3.847164 0.000000 0.000000 0.000000 
11.014891 34.781425 -4.911665 -178.502705 -38.240894 178.827507 -1.658833 -7.636991 12.027106 -9.812969 -7.078181 -39.288863 11.371550 4.341685 21.713054 -20.232333 6.563913 16.895707 0.000000 0.000000 0.000000 5.960751 -6.362156 12.418855 1.827405 2.817001 -30.638128 -6.933548 -11.751557 38.090537 3.623637 11.182665 2.294284 0.000000 0.000000 0.000000 4.356102 -2.427004 -3.694675 -0.839573 3.219637 -10.769070 -2.051242 -1.529457 10.549506 -0.191380 0.087290 -0.104060 -2.480709 0.591144 9.879096 -4.599671 3.270241 18.321520 0.000000 0.000000 0.000000 -0.500733 1.240654 6.913820 -18.286413 -10.894705 5.258133 -43.636313 13.933471 15.151590 -2.179326 -31.496417 4.223529 0.000000 0.000000 0.000000 -5.224819 2.481148 6.365436 26.459480 5.247921 8.210129 49.746696 -23.471337 9.631159 -6.145169 24.117492 -3.786159 0.000000 0.000000 0.000000 
